<svg xmlns="http://www.w3.org/2000/svg" width="76" height="106"><style>.shp1{fill:#fff}</style><g id="flat-marker"><path id="marker" d="M0 39.23C0 63.15 38 106 38 106s38-42.89 38-66.77C76 16.27 58.99 1 38 1S0 16.27 0 39.23z" fill="#485563"/><path id="circle" class="shp1" d="M23.81 39.74c0 7.88 6.35 14.27 14.19 14.27s14.19-6.39 14.19-14.27S45.84 25.47 38 25.47s-14.19 6.39-14.19 14.27z"/><path id="circle" class="shp1" d="M14.69 39.74c0 12.95 10.43 23.45 23.31 23.45 12.87 0 23.31-10.5 23.31-23.45S50.88 16.29 38 16.29c-12.87 0-23.31 10.5-23.31 23.45z"/><g id="logo"><text id="Z" transform="translate(27 52)"><tspan x="0" y="0" style="line-height:36px;white-space:pre" font-size="40" letter-spacing="-1" fill="#29323c" font-family="Airbag">Z</tspan></text></g></g></svg>