<svg xmlns="http://www.w3.org/2000/svg" viewBox="0 0 76 106" width="76" height="106">
	<style>
		tspan { white-space:pre }
		.shp0 { fill: #485563 } 
		.shp1 { fill: #ffffff } 
		.txt2 { font-size: 40px;letter-spacing: -1px;line-height: 36px;fill: #29323c;font-family: "Airbag" } 
	</style>
	<g id="flat-marker">
		<path id="marker" class="shp0" d="M0,39.23c0,23.92 38,66.77 38,66.77c0,0 38,-42.89 38,-66.77c0,-22.96 -17.01,-38.23 -38,-38.23c-20.99,0 -38,15.27 -38,38.23z" />
		<path id="circle" class="shp1" d="M23.81,39.74c0,7.88 6.35,14.27 14.19,14.27c7.84,0 14.19,-6.39 14.19,-14.27c0,-7.88 -6.35,-14.27 -14.19,-14.27c-7.84,0 -14.19,6.39 -14.19,14.27z" />
		<path id="circle" class="shp1" d="M14.69,39.74c0,12.95 10.43,23.45 23.31,23.45c12.87,0 23.31,-10.5 23.31,-23.45c0,-12.95 -10.43,-23.45 -23.31,-23.45c-12.87,0 -23.31,10.5 -23.31,23.45z" />
		<g id="logo">
			<text id="Z" style="transform: matrix(1,0,0,1,27,52)" >
				<tspan x="0" y="0" class="txt2">Z</tspan>
			</text>
		</g>
	</g>
</svg>